<svg width="41" height="41" viewBox="0 0 41 41" fill="none" xmlns="http://www.w3.org/2000/svg">
<path d="M22.2288 20.8779L13.3838 14.4798C13.1132 14.2851 12.738 14.3138 12.5002 14.5509C12.2624 14.7887 12.2331 15.1632 12.4292 15.4344L18.8286 24.2809C19.2482 24.8583 19.8966 25.2212 20.608 25.2765C20.6722 25.2813 20.7358 25.2833 20.7986 25.2833C21.4423 25.2833 22.0614 25.0291 22.52 24.5699C23.0236 24.0663 23.2812 23.37 23.2258 22.6587C23.1705 21.9473 22.8076 21.2988 22.2288 20.8779ZM21.5537 23.6037C21.3323 23.8244 21.0241 23.9372 20.7146 23.9132C20.403 23.8893 20.118 23.7294 19.9349 23.478L16.031 18.0817L21.4259 21.9842C21.6794 22.1687 21.8387 22.4537 21.8633 22.7659C21.8879 23.0769 21.7744 23.383 21.5537 23.6037Z" fill="#03C0CE"/>
<path d="M38.3221 17.7817C38.3214 17.7796 38.3221 17.7769 38.3214 17.7749C38.3207 17.7721 38.3186 17.7701 38.318 17.7673C37.8998 16.21 37.2807 14.7354 36.4935 13.3687C36.4866 13.3544 36.4866 13.3393 36.4784 13.325C36.4702 13.3113 36.4572 13.3038 36.4484 13.2908C35.7575 12.1053 34.9402 11.0037 34.0116 10.0047L35.4787 8.53757L36.4456 9.5038L39.3443 6.6051L36.4456 3.70572L33.5462 6.6051L34.5125 7.57133L33.0454 9.03845C32.0463 8.11048 30.9448 7.29253 29.7592 6.60168C29.7462 6.5928 29.7387 6.57982 29.725 6.57162C29.7114 6.56342 29.695 6.5641 29.6813 6.55658C28.3146 5.7687 26.84 5.15028 25.2834 4.73208C25.2806 4.7314 25.2786 4.72935 25.2759 4.72867C25.2731 4.72798 25.2711 4.72867 25.269 4.72867C24.3862 4.49223 23.4787 4.32003 22.55 4.21685V3.41667H23.575C24.5174 3.41667 25.2834 2.65065 25.2834 1.70833C25.2834 0.766017 24.5174 0 23.575 0H17.425C16.4827 0 15.7167 0.766017 15.7167 1.70833C15.7167 2.65065 16.4827 3.41667 17.425 3.41667H18.45V4.21685C17.5214 4.32003 16.6139 4.49223 15.7317 4.72867C15.729 4.72935 15.727 4.72867 15.7249 4.72935C15.7222 4.73003 15.7201 4.73208 15.7174 4.73277C14.1608 5.15097 12.6861 5.77007 11.3195 6.55727C11.3051 6.5641 11.2894 6.5641 11.275 6.5723C11.2614 6.5805 11.2539 6.59348 11.2409 6.60237C10.056 7.29322 8.95376 8.11048 7.95473 9.03913L6.48761 7.57133L7.45385 6.6051L4.55446 3.70572L1.65576 6.6051L4.55446 9.5038L5.52138 8.53757L6.9885 10.0047C6.06053 11.0037 5.24258 12.1053 4.55241 13.2908C4.54353 13.3038 4.52986 13.3113 4.52235 13.325C4.51415 13.3393 4.51483 13.3544 4.50731 13.3687C3.71943 14.7354 3.10101 16.21 2.68281 17.7673C2.68213 17.7701 2.68008 17.7721 2.6794 17.7749C2.67871 17.7769 2.6794 17.7796 2.67871 17.7817C2.27076 19.3042 2.05005 20.9011 2.05005 22.55C2.05005 24.1989 2.27076 25.7958 2.67803 27.3183C2.67871 27.321 2.67803 27.3231 2.67871 27.3251C2.6794 27.3286 2.68213 27.3313 2.68281 27.3347C3.10101 28.8913 3.71943 30.3653 4.50663 31.7313C4.51346 31.7456 4.51346 31.7607 4.52166 31.775C4.53328 31.7948 4.54968 31.8098 4.56266 31.8283C5.35875 33.1902 6.32088 34.4434 7.42651 35.5552C7.43745 35.5682 7.44155 35.5839 7.45385 35.5962C7.46615 35.6085 7.48186 35.6126 7.49485 35.6235C8.61141 36.7346 9.87148 37.7002 11.2409 38.4983C11.2539 38.5072 11.2614 38.5202 11.275 38.5284C11.2955 38.54 11.3181 38.5455 11.3393 38.555C12.6998 39.3368 14.1683 39.9518 15.7174 40.3679C15.7201 40.3686 15.7222 40.3707 15.7249 40.3713C15.7283 40.372 15.7317 40.372 15.7352 40.3727C17.2563 40.78 18.8525 41 20.5 41C22.1476 41 23.7438 40.78 25.2649 40.3727C25.2683 40.372 25.2718 40.3727 25.2752 40.3713C25.2779 40.3707 25.28 40.3686 25.2827 40.3679C26.8318 39.9518 28.2996 39.3368 29.6608 38.555C29.682 38.5455 29.7045 38.5407 29.725 38.5284C29.7387 38.5202 29.7462 38.5072 29.7592 38.4983C31.1286 37.7002 32.388 36.7346 33.5052 35.6235C33.5182 35.6126 33.5339 35.6085 33.5462 35.5962C33.5585 35.5839 33.5626 35.5675 33.5736 35.5552C34.6792 34.4434 35.6413 33.1902 36.4374 31.8283C36.4504 31.8098 36.4668 31.7955 36.4784 31.775C36.4866 31.7607 36.4859 31.7456 36.4935 31.7313C37.2807 30.3653 37.8991 28.8913 38.3173 27.3347C38.318 27.3313 38.3207 27.3286 38.3214 27.3251C38.3221 27.3231 38.3214 27.3204 38.3221 27.3183C38.7293 25.7958 38.95 24.1989 38.95 22.55C38.95 20.9011 38.7293 19.3042 38.3221 17.7817ZM36.4456 5.63818L37.4119 6.6051L36.4456 7.57133L35.4787 6.6051L36.4456 5.63818ZM3.58823 6.6051L4.55446 5.63818L5.52138 6.6051L4.55446 7.57133L3.58823 6.6051ZM35.504 27.278L36.8126 27.6285C36.5017 28.6248 36.0985 29.5808 35.6188 30.4903L34.4523 29.8166C34.1257 29.6273 33.7075 29.7387 33.5189 30.0667C33.3303 30.394 33.4424 30.8115 33.769 31.0001L34.9327 31.6718C34.3772 32.5478 33.7465 33.3706 33.0454 34.1291L32.0962 33.1799C31.829 32.9128 31.3972 32.9128 31.13 33.1799C30.8628 33.4471 30.8628 33.879 31.13 34.1462L32.0791 35.0953C31.3206 35.7964 30.4979 36.4271 29.6219 36.9827L28.9501 35.819C28.7609 35.491 28.342 35.3789 28.0167 35.5689C27.6894 35.7575 27.5773 36.1757 27.7666 36.5023L28.4404 37.6688C27.5309 38.1484 26.5756 38.5516 25.5786 38.8625L25.228 37.5546C25.1303 37.1897 24.7558 36.9724 24.3909 37.0715C24.0267 37.1692 23.8101 37.5437 23.9078 37.9086L24.257 39.2124C23.2621 39.4365 22.235 39.5746 21.1834 39.6162V38.2667C21.1834 37.8888 20.8779 37.5833 20.5 37.5833C20.1222 37.5833 19.8167 37.8888 19.8167 38.2667V39.6162C18.7651 39.5746 17.738 39.4365 16.7431 39.2124L17.0923 37.9086C17.19 37.5444 16.9734 37.1692 16.6091 37.0715C16.2449 36.9731 15.8698 37.1897 15.7721 37.5546L15.4215 38.8625C14.4252 38.5516 13.4692 38.1484 12.5597 37.6688L13.2335 36.5023C13.4221 36.175 13.31 35.7575 12.9834 35.5689C12.6567 35.3796 12.2385 35.491 12.0499 35.819L11.3782 36.9827C10.5022 36.4271 9.67946 35.7964 8.92096 35.0953L9.87011 34.1462C10.1373 33.879 10.1373 33.4471 9.87011 33.1799C9.60293 32.9128 9.17106 32.9128 8.90388 33.1799L7.95473 34.1291C7.25363 33.3706 6.62291 32.5478 6.06736 31.6718L7.23108 31.0001C7.5584 30.8115 7.67046 30.3933 7.48118 30.0667C7.2919 29.7387 6.87301 29.6266 6.54775 29.8166L5.3813 30.4903C4.9016 29.5808 4.49843 28.6255 4.18751 27.6285L5.4961 27.278C5.86031 27.1803 6.07693 26.8058 5.97921 26.4409C5.88218 26.076 5.50771 25.8587 5.14213 25.9578L3.83765 26.307C3.6142 25.312 3.47548 24.285 3.4338 23.2333H4.78338C5.16126 23.2333 5.46671 22.9279 5.46671 22.55C5.46671 22.1721 5.16126 21.8667 4.78338 21.8667H3.4338C3.47548 20.815 3.61351 19.788 3.83765 18.793L5.14213 19.1429C5.20158 19.1586 5.26103 19.1661 5.3198 19.1661C5.62115 19.1661 5.89721 18.9652 5.97921 18.6598C6.07761 18.2956 5.86031 17.9204 5.4961 17.8227L4.18751 17.4715C4.49843 16.4752 4.9016 15.5192 5.3813 14.6097L6.54775 15.2834C6.65435 15.3456 6.77188 15.375 6.88805 15.375C7.12448 15.375 7.35408 15.2527 7.48049 15.0333C7.6691 14.706 7.55703 14.2885 7.2304 14.0999L6.06668 13.4282C6.62223 12.5521 7.25295 11.7294 7.95405 10.9709L8.9032 11.9201C9.03645 12.0533 9.21138 12.1203 9.38631 12.1203C9.56125 12.1203 9.73618 12.0533 9.86943 11.9201C10.1366 11.6529 10.1366 11.221 9.86943 10.9538L8.92028 10.0047C9.67878 9.30427 10.5015 8.67287 11.3775 8.11732L12.0493 9.28172C12.1764 9.50038 12.4053 9.62338 12.6417 9.62338C12.7579 9.62338 12.8754 9.594 12.9827 9.53182C13.31 9.34322 13.4221 8.92502 13.2328 8.59838L12.559 7.43125C13.4685 6.95155 14.4238 6.54838 15.4208 6.23747L15.7714 7.54605C15.8527 7.85082 16.1288 8.0524 16.4308 8.0524C16.4896 8.0524 16.549 8.04488 16.6085 8.02917C16.9727 7.93145 17.1893 7.55698 17.0916 7.19208L16.7424 5.8876C17.5433 5.7072 18.3639 5.58352 19.2024 5.52065C19.4142 5.50493 19.6056 5.49332 19.7907 5.48443C19.7996 5.48443 19.8078 5.48443 19.8167 5.48375V6.83333C19.8167 7.21122 20.1222 7.51667 20.5 7.51667C20.8779 7.51667 21.1834 7.21122 21.1834 6.83333V5.48375C21.1923 5.48375 21.2005 5.48375 21.2093 5.48443C21.3945 5.49332 21.5852 5.50493 21.7977 5.52065C22.6361 5.5842 23.4575 5.7072 24.2577 5.8876L23.9085 7.19208C23.8108 7.5563 24.0274 7.93145 24.3916 8.02917C24.4511 8.04488 24.5105 8.0524 24.5693 8.0524C24.8706 8.0524 25.1474 7.85082 25.2287 7.54605L25.5793 6.23747C26.5756 6.54838 27.5315 6.95155 28.4411 7.43125L27.7673 8.59838C27.5787 8.9257 27.6908 9.34322 28.0174 9.53182C28.1247 9.594 28.2422 9.62338 28.3584 9.62338C28.5948 9.62338 28.8244 9.50038 28.9508 9.28172L29.6225 8.11732C30.4986 8.67287 31.3213 9.30427 32.0798 10.0047L31.1307 10.9538C30.8635 11.221 30.8635 11.6529 31.1307 11.9201C31.2639 12.0533 31.4388 12.1203 31.6138 12.1203C31.7887 12.1203 31.9636 12.0533 32.0969 11.9201L33.046 10.9709C33.7471 11.7294 34.3779 12.5521 34.9334 13.4282L33.7697 14.0999C33.4424 14.2885 33.3303 14.706 33.5196 15.0333C33.6467 15.2527 33.8756 15.375 34.112 15.375C34.2282 15.375 34.3457 15.3456 34.453 15.2834L35.6195 14.6097C36.0992 15.5192 36.5023 16.4745 36.8133 17.4715L35.5047 17.8227C35.1405 17.9204 34.9232 18.2949 35.0216 18.6598C35.1036 18.9652 35.3789 19.1661 35.681 19.1661C35.7397 19.1661 35.7992 19.1586 35.8587 19.1429L37.1631 18.793C37.3873 19.788 37.5253 20.815 37.567 21.8667H36.2167C35.8388 21.8667 35.5334 22.1721 35.5334 22.55C35.5334 22.9279 35.8388 23.2333 36.2167 23.2333H37.5663C37.5246 24.285 37.3866 25.312 37.1624 26.3076L35.858 25.9585C35.4951 25.8601 35.1186 26.0774 35.0209 26.4416C34.9232 26.8058 35.1398 27.1803 35.504 27.278ZM19.8167 4.11503V2.05H17.425C17.2371 2.05 17.0834 1.89625 17.0834 1.70833C17.0834 1.52042 17.2371 1.36667 17.425 1.36667H23.575C23.763 1.36667 23.9167 1.52042 23.9167 1.70833C23.9167 1.89625 23.763 2.05 23.575 2.05H21.1834V4.11503C20.9442 4.10478 20.7194 4.1 20.5 4.1C20.2807 4.1 20.0559 4.10478 19.8167 4.11503Z" fill="#03C0CE"/>
</svg>
