<svg width="37" height="37" viewBox="0 0 37 37" fill="none" xmlns="http://www.w3.org/2000/svg">
<path d="M24.4276 5.5409C24.9282 4.45739 25.4364 3.38135 25.9669 2.23806C20.0935 -0.235332 14.3696 -0.115772 8.89974 3.14224C3.60921 6.28815 0.739777 11.0705 0 17.2279C1.25538 17.34 2.44351 17.4446 3.63163 17.5417C4.28174 8.23848 14.5639 1.10224 24.4276 5.5409Z" fill="white"/>
<path d="M36.2191 15.6511C35.0385 15.8529 33.8653 16.0621 32.6398 16.2713C33.275 20.5307 32.3932 24.3715 29.7928 27.7341C27.2073 31.0818 23.7401 32.9201 19.5032 33.3908C19.6078 34.5939 19.7124 35.7671 19.8095 36.9403C28.6794 36.6264 38.1844 27.7192 36.2191 15.6511Z" fill="white"/>
<path d="M3.57932 20.1047C2.45098 20.2019 1.2778 20.3065 0.104614 20.4036C0.381096 27.8388 6.86722 36.208 16.6487 37C16.7533 35.797 16.8579 34.6163 16.9551 33.473C9.30325 32.1952 4.87206 27.764 3.57932 20.1047Z" fill="white"/>
<path d="M29.8075 9.90419C30.7191 11.0847 31.4214 12.3848 31.9669 13.8194C33.1026 13.4085 34.2233 12.9975 35.3964 12.5716C34.044 8.97022 31.8398 6.10106 28.7092 3.85205C28.0143 4.8458 27.3269 5.81713 26.6171 6.83329C27.8275 7.72243 28.9034 8.73112 29.8075 9.90419Z" fill="white"/>
<path d="M19.9657 29.228V27.8007C21.1837 27.5691 22.3644 27.0833 23.4255 26.351L24.4418 27.3673C24.8228 27.7409 25.4281 27.7409 25.8092 27.3673L26.8628 26.3137C27.2365 25.9326 27.2365 25.3273 26.8628 24.9462L25.8316 23.915C26.549 22.8539 27.0198 21.6733 27.2439 20.4627H28.7085C29.2391 20.4627 29.6725 20.0293 29.6725 19.4988V18.0043C29.6725 17.4737 29.2391 17.0403 28.7085 17.0403H27.2365C27.0048 15.8298 26.5266 14.6641 25.8092 13.6104L26.8554 12.5643C27.229 12.1832 27.229 11.5779 26.8554 11.1968L25.7868 10.1357C25.4057 9.76211 24.8004 9.76211 24.4193 10.1357L23.3732 11.1819C22.3196 10.4645 21.1464 9.98628 19.9358 9.75464V8.28255C19.9358 7.75201 19.5024 7.3186 18.9719 7.3186H17.4774C16.9468 7.3186 16.5134 7.75201 16.5134 8.28255V9.74716C15.3029 9.97134 14.1222 10.4496 13.0611 11.1669L12.0374 10.1507C11.6563 9.77705 11.051 9.77705 10.6699 10.1507L9.61632 11.2118C9.2427 11.5929 9.2427 12.1981 9.61632 12.5792L10.6326 13.5955C9.90028 14.6566 9.42204 15.8372 9.19039 17.0553H7.76315C7.2326 17.0553 6.79919 17.4887 6.79919 18.0192V19.5137C6.79919 20.0443 7.2326 20.4777 7.76315 20.4777H9.18292C9.41457 21.7032 9.89281 22.8913 10.6176 23.9524L9.63127 24.9612C9.25764 25.3423 9.25764 25.9475 9.63127 26.3286L10.6849 27.3822C11.066 27.7559 11.6713 27.7559 12.0524 27.3822L13.0537 26.3809C14.1222 27.1058 15.3104 27.584 16.5359 27.8157V29.2354C16.5359 29.766 16.9693 30.1994 17.4998 30.1994H18.9943C19.5323 30.1919 19.9657 29.7585 19.9657 29.228ZM14.72 22.286C12.7772 20.3432 12.7697 17.1898 14.7126 15.2469C16.6554 13.3041 19.8088 13.2966 21.7517 15.2394C23.6945 17.1823 23.702 20.3357 21.7591 22.2785C19.8238 24.2214 16.6704 24.2289 14.72 22.286Z" fill="white"/>
</svg>
