<svg width="11" height="11" viewBox="0 0 11 11" fill="none" xmlns="http://www.w3.org/2000/svg">
<path d="M10.6863 7.47909L8.28001 6.5275C8.17721 6.48708 8.06297 6.47856 7.95447 6.50323C7.84598 6.5279 7.7491 6.58442 7.67843 6.66429L6.61279 7.86568C4.94036 7.13807 3.59444 5.89613 2.80591 4.35291L4.10788 3.3696C4.19461 3.30451 4.256 3.21512 4.28275 3.11496C4.3095 3.0148 4.30015 2.90932 4.25613 2.8145L3.22486 0.59412C3.17654 0.491904 3.09109 0.408449 2.98323 0.358144C2.87538 0.307839 2.75188 0.293838 2.63403 0.318554L0.399616 0.794351C0.285998 0.81856 0.184628 0.877591 0.112051 0.961808C0.0394729 1.04602 -2.61729e-05 1.15045 1.30116e-08 1.25805C1.30116e-08 6.34313 4.46668 10.4568 9.96892 10.4568C10.0856 10.4569 10.1988 10.4204 10.2901 10.3535C10.3814 10.2865 10.4454 10.1929 10.4717 10.088L10.9873 8.02626C11.0139 7.91699 10.9984 7.80257 10.9435 7.70271C10.8885 7.60284 10.7976 7.52377 10.6863 7.47909Z" fill="#8F8F8F"/>
</svg>
