<svg width="138" height="113" viewBox="0 0 138 113" fill="none" xmlns="http://www.w3.org/2000/svg">
<path d="M68.4471 100.251C68.4471 93.522 73.8687 88.052 80.6456 88.052C87.2774 88.052 92.7473 93.522 92.8441 100.251C92.6989 106.931 87.2774 112.352 80.6456 112.449C73.8687 112.401 68.3987 106.931 68.4471 100.251ZM80.6456 107.996C84.3245 107.947 87.3742 104.51 87.3742 100.299C87.3258 95.9907 84.2761 92.5538 80.6456 92.6022C76.8215 92.5538 73.7718 96.0391 73.9171 100.299C73.7718 104.462 76.8215 107.947 80.6456 107.996Z" fill="#E4032E"/>
<path d="M106.689 93.183V111.82H101.509V93.183H94.1514V89.02H113.756V93.183H106.689Z" fill="#E4032E"/>
<path d="M119.855 106.689L117.919 111.82H111.82L121.453 89.02H127.891L137.233 111.82H131.086L129.149 106.689H119.855ZM124.648 102.816H127.842L124.648 94.4416L121.453 102.816H124.648Z" fill="#E4032E"/>
<path d="M12.1985 93.183V111.82H7.06739V93.183H0V89.02H19.2659V93.183H12.1985Z" fill="#E4032E"/>
<path d="M20.5729 100.251C20.5729 93.522 26.0428 88.052 32.7714 88.052C39.4515 88.052 44.8731 93.522 44.9699 100.251C44.8731 106.931 39.4515 112.352 32.7714 112.449C25.9944 112.401 20.5729 106.931 20.5729 100.251ZM32.7714 107.996C36.4987 107.947 39.4999 104.51 39.4999 100.299C39.4999 95.9907 36.4503 92.5538 32.7714 92.6022C28.9957 92.5538 25.946 96.0391 26.0428 100.299C25.946 104.462 28.9473 107.947 32.7714 107.996Z" fill="#E4032E"/>
<path d="M56.5392 111.82H59.1048V103.155L68.1084 89.02H62.348L56.5392 98.653L51.0692 89.02H44.97L53.9736 103.155V111.82H56.5392Z" fill="#E4032E"/>
<path d="M4.79236 38.8223C4.79236 60.2181 32.8199 77.6446 67.2372 77.6446C101.654 77.6446 129.682 60.2181 129.682 38.8223C129.682 17.4265 101.654 0 67.2372 0C32.8199 0 4.79236 17.4265 4.79236 38.8223ZM5.42164 38.8223C5.42164 17.7653 33.1588 0.629283 67.2372 0.629283C101.316 0.629283 129.053 17.7653 129.053 38.8223C129.053 59.8793 101.316 77.0153 67.2372 77.0153C33.1104 77.0153 5.42164 59.8793 5.42164 38.8223Z" fill="#1D1D1B"/>
<path d="M61.283 7.16413C47.003 8.03545 36.2567 11.8596 34.5625 16.7003C34.4172 17.1844 34.3204 17.62 34.3204 18.1041C34.3204 18.8786 34.5141 19.6047 34.9497 20.3308C36.886 23.6709 43.0821 26.4301 51.9405 27.9307L52.231 27.9791L52.2794 27.6886C53.78 18.4429 57.1685 11.1819 61.4767 7.6966L62.2028 7.11572L61.283 7.16413ZM35.4822 20.0404C35.0949 19.4111 34.9013 18.7818 34.9013 18.1041C34.9013 17.7168 34.9497 17.3296 35.0949 16.8939C36.6924 12.4405 47.0514 8.76156 60.4601 7.84183C56.394 11.5207 53.2475 18.5397 51.7469 27.3014C43.3725 25.8008 37.2732 23.1384 35.4822 20.0404Z" fill="#1D1D1B"/>
<path d="M59.2015 28.4632L59.1531 28.802L59.4919 28.8504C62.0091 29.044 64.6231 29.1409 67.237 29.1409C69.851 29.1409 72.465 29.044 74.9821 28.8504L75.321 28.802L75.2726 28.4632C73.9172 20.7665 70.8191 15.9258 67.2854 15.9258C63.6549 15.9742 60.6053 20.7665 59.2015 28.4632ZM67.237 16.5551C70.4319 16.5551 73.2395 21.0085 74.5949 28.2211C72.2229 28.4147 69.7542 28.5116 67.237 28.5116C64.7683 28.5116 62.2995 28.4147 59.8792 28.2211C61.2346 21.0569 64.0422 16.5551 67.237 16.5551Z" fill="#1D1D1B"/>
<path d="M72.9493 7.6966C77.2575 11.1819 80.646 18.4429 82.1466 27.6886L82.195 27.9791L82.4855 27.9307C91.3439 26.4301 97.54 23.6709 99.4763 20.3308C100.154 19.1206 100.299 17.9105 99.8635 16.7003C98.1693 11.8596 87.423 8.03545 73.1429 7.16413L72.1748 7.11572L72.9493 7.6966ZM73.9659 7.84183C87.3746 8.80996 97.7336 12.4889 99.3311 16.8939C99.4763 17.2812 99.5247 17.6684 99.5247 18.1041C99.5247 18.7334 99.3311 19.4111 98.9438 20.0404C97.1528 23.1384 91.0535 25.8008 82.6307 27.3014C81.1785 18.5397 78.032 11.5207 73.9659 7.84183Z" fill="#1D1D1B"/>
<path d="M25.0263 20.8149C18.5398 26.2365 15.1029 32.6746 15.1029 39.4032C15.1029 55.3774 34.7561 68.8829 60.799 70.8192L61.7187 70.8676L61.041 70.2867C55.1354 65.204 51.4565 53.2959 51.4565 39.1611L51.5049 36.4019L51.2628 36.3535C36.886 33.788 27.0594 27.8823 25.5588 20.9601L25.462 20.4761L25.0263 20.8149ZM15.7322 39.4032C15.7322 32.965 18.9755 26.8174 25.0747 21.5894C26.9626 28.4632 36.7408 34.3204 50.8756 36.886C50.8756 37.3217 50.8272 39.1611 50.8272 39.1611C50.8272 52.9571 54.3125 64.6715 59.9761 70.1415C34.7077 67.9632 15.7322 54.8449 15.7322 39.4032Z" fill="#1D1D1B"/>
<path d="M58.4272 37.6604V37.9992C58.4272 50.3914 62.2998 60.0728 67.2373 60.0728C72.1748 60.0728 76.0473 50.3914 76.0473 37.9992V37.3215L75.7085 37.3699C72.9493 37.612 70.0933 37.7572 67.2373 37.7572C64.3813 37.7572 61.5253 37.612 58.7661 37.3699L58.4272 37.3215V37.6604ZM59.0565 37.9992C59.0565 37.9992 59.0565 37.9508 59.0565 37.9992C61.7189 38.1929 64.4781 38.3381 67.2373 38.3381C69.9965 38.3381 72.7557 38.2413 75.4181 37.9992V38.0476C75.4181 50.1009 71.836 59.5403 67.2373 59.5403C62.6386 59.4919 59.0565 50.0525 59.0565 37.9992Z" fill="#1D1D1B"/>
<path d="M108.916 20.9601C107.415 27.8823 97.5883 33.7396 83.2115 36.3535L82.9695 36.4019L83.0179 39.1611C83.0179 53.2959 79.3389 65.204 73.4333 70.2867L72.7556 70.8676L73.6753 70.8192C99.7182 68.8829 119.371 55.3774 119.371 39.4032C119.371 32.6746 115.935 26.2365 109.448 20.8149L109.061 20.4761L108.916 20.9601ZM109.4 21.5894C115.499 26.8174 118.742 32.965 118.742 39.4032C118.742 54.8934 99.7666 67.9632 74.4983 70.1415C80.1619 64.6715 83.6472 52.9571 83.6472 39.1611C83.6472 39.1611 83.5987 37.3217 83.5987 36.886C97.7335 34.3204 107.512 28.4632 109.4 21.5894Z" fill="#1D1D1B"/>
<path d="M108.964 15.8289C109.061 16.071 109.158 16.313 109.206 16.6034C109.593 18.0556 109.496 19.4594 109.012 20.8632C115.305 26.0428 119.033 32.4809 119.033 39.4031C119.033 56.7327 95.8456 70.7707 67.2372 70.7707C38.6287 70.7707 15.4419 56.7327 15.4419 39.4031C15.4419 32.4809 19.1692 26.0428 25.4621 20.8632C24.978 19.4594 24.9296 18.0556 25.2684 16.6034C25.3169 16.3614 25.4621 16.071 25.5589 15.7805C16.9909 21.8798 11.7629 29.9153 11.7629 38.7254C11.7629 57.8945 36.5957 73.4815 67.2372 73.4815C97.8787 73.4815 122.711 57.9429 122.711 38.7254C122.711 29.9637 117.532 21.9282 108.964 15.8289Z" fill="url(#paint0_linear)"/>
<path d="M59.4922 28.56L57.8948 29.7218C59.2018 19.75 62.8807 13.4087 67.1889 13.4087C71.4971 13.4087 75.176 19.7984 76.483 29.7218L74.8856 28.56C73.5302 21.0086 70.5774 16.3131 67.1889 16.3131C63.8004 16.2647 60.8476 21.0086 59.4922 28.56Z" fill="url(#paint1_linear)"/>
<path d="M77.0154 35.2886L75.7084 37.6605C75.7084 37.7573 75.7084 37.9025 75.7084 37.9994C75.7084 50.3915 71.8843 59.7824 67.2372 59.7824C62.5418 59.7824 58.766 50.3915 58.766 37.9994C58.766 37.8541 58.766 37.7089 58.766 37.6121L57.4591 35.337C57.4106 36.2083 57.4106 37.128 57.4106 38.0478C57.4106 52.0858 61.8157 62.7353 67.2372 62.7353C72.6588 62.7353 77.0638 52.0858 77.0638 38.0478C77.0638 37.0796 77.0638 36.1599 77.0154 35.2886Z" fill="url(#paint2_linear)"/>
<path d="M74.9338 28.5602C72.4651 28.7538 69.8995 28.8506 67.2372 28.8506C64.5748 28.8506 61.9608 28.7538 59.5405 28.5602L57.943 29.722C60.8959 29.964 63.9939 30.1092 67.2372 30.1092C70.4804 30.1092 73.5784 29.964 76.5313 29.722L74.9338 28.5602ZM103.252 16.3617C101.316 9.92355 85.2445 5.17969 67.1888 5.17969C49.133 5.17969 33.1103 9.92355 31.1256 16.3617C29.4314 21.9285 38.6771 27.108 53.1992 29.1411L51.9406 27.5921C40.1777 25.6074 33.1587 21.2992 34.7562 16.7489C36.6924 11.2305 50.924 7.21277 67.1403 7.21277C83.3566 7.21277 97.5398 11.2305 99.5245 16.7489C101.122 21.2992 94.1514 25.559 82.3401 27.5921L81.0815 29.1411C95.7488 27.108 104.946 21.9769 103.252 16.3617Z" fill="url(#paint3_linear)"/>
<path d="M109.012 20.8634C111.432 22.8481 113.466 25.0264 115.015 27.3015C114.434 23.5742 112.933 20.1373 110.755 17.2329C110.174 16.7488 109.545 16.3132 108.915 15.8291C109.012 16.0711 109.109 16.3132 109.157 16.6036C109.593 18.0558 109.496 19.4596 109.012 20.8634Z" fill="#3C3C3B"/>
<path d="M25.4135 20.8632C24.9295 19.4594 24.881 18.0556 25.2199 16.6034C25.2683 16.3614 25.4135 16.071 25.5103 15.7805C24.8326 16.2646 24.2034 16.7487 23.6225 17.2327C21.4442 20.1371 19.9436 23.574 19.3627 27.3014C21.0085 25.0262 23.0416 22.8479 25.4135 20.8632Z" fill="#3C3C3B"/>
<path d="M5.08264 38.8224C5.08264 17.5718 32.9166 0.290527 67.237 0.290527C101.558 0.290527 129.343 17.5234 129.343 38.8224C129.343 60.073 101.509 77.3542 67.237 77.3542C32.9166 77.3058 5.08264 60.073 5.08264 38.8224ZM67.237 73.4333C97.8786 73.4333 122.711 57.8947 122.711 38.6772C122.711 19.5081 97.8786 3.92104 67.237 3.92104C36.5955 3.92104 11.7628 19.4596 11.7628 38.6772C11.7628 57.8947 36.5955 73.4333 67.237 73.4333Z" fill="url(#paint4_linear)"/>
<path d="M11.3756 38.7256C11.3756 58.0883 36.4504 73.8206 67.2371 73.8206C98.0239 73.8206 123.099 58.0883 123.099 38.7256C123.099 19.3628 98.0723 3.63062 67.2371 3.63062C36.4504 3.63062 11.3756 19.3628 11.3756 38.7256ZM12.1017 38.7256C12.1017 19.7501 36.8376 4.35672 67.2371 4.35672C97.6366 4.35672 122.373 19.7985 122.373 38.7256C122.373 57.7011 97.6366 73.0945 67.2371 73.0945C36.8376 73.0945 12.1017 57.6527 12.1017 38.7256Z" fill="white"/>
<path d="M52.6184 39.161C52.6184 20.6212 59.1533 5.22778 67.1889 5.22778C75.2244 5.22778 81.7593 20.6212 81.7593 39.161C81.7593 57.8944 75.2244 73.0942 67.1889 73.0942C59.1533 73.0942 52.6184 57.8944 52.6184 39.161ZM67.2373 62.6867C72.6589 62.6867 77.0639 52.0372 77.0639 37.9992C77.0639 23.4288 72.6589 13.4085 67.2373 13.4085C61.8157 13.4085 57.4107 23.4288 57.4107 37.9992C57.4107 52.0372 61.8157 62.6867 67.2373 62.6867Z" fill="url(#paint5_linear)"/>
<path d="M25.2683 16.6036C26.8658 10.2623 46.2285 1.0166 67.2371 1.0166C88.2457 1.0166 106.931 7.59993 109.206 16.6036C111.771 26.6722 93.0863 35.7727 67.2371 35.7727C41.3878 35.7727 22.7028 26.6722 25.2683 16.6036ZM67.2371 5.228C49.1813 5.228 33.1587 9.97187 31.174 16.41C28.9957 23.6226 45.0183 30.1575 67.2371 30.1575C89.4558 30.1575 105.479 23.6226 103.3 16.41C101.316 9.92347 85.2444 5.228 67.2371 5.228Z" fill="url(#paint6_linear)"/>
<path d="M57.4105 35.2885L58.7659 37.6604C61.4767 37.9024 64.2843 38.0477 67.2371 38.0477C70.1899 38.0477 72.9975 37.9024 75.7083 37.6604L77.0153 35.3369C73.9173 35.6273 70.6256 35.7725 67.2371 35.7725C63.8002 35.7725 60.557 35.5789 57.4105 35.2885ZM109.448 18.7817C109.109 25.9944 98.0723 32.3357 81.7108 34.756L83.3082 36.6439C99.2825 33.7879 109.787 26.7205 109.448 18.7817ZM25.0263 18.7817C24.6391 26.7205 35.1434 33.7879 51.166 36.6439L52.7635 34.756C36.402 32.3357 25.3652 25.946 25.0263 18.7817Z" fill="url(#paint7_linear)"/>
<path d="M81.1782 29.1892L82.4368 27.6402C80.2585 14.2315 74.2561 5.22778 67.2371 5.22778C73.772 5.22778 79.3388 15.3932 81.1782 29.1892Z" fill="url(#paint8_linear)"/>
<path d="M53.2959 29.1892C55.1354 15.3932 60.7022 5.22778 67.2371 5.22778C60.2181 5.22778 54.2157 14.2315 52.0374 27.6402L53.2959 29.1892Z" fill="url(#paint9_linear)"/>
<path d="M52.6183 39.1611C52.6183 37.6605 52.6667 36.2083 52.7635 34.7561L51.1661 36.644C51.1177 37.4669 51.1177 38.2898 51.1177 39.1611C51.1177 59.0079 58.1851 73.0943 67.2372 73.0943C59.1532 73.0943 52.6183 57.8946 52.6183 39.1611Z" fill="url(#paint10_linear)"/>
<path d="M83.3081 36.644L81.7106 34.7561C81.8075 36.2083 81.8559 37.6605 81.8559 39.1611C81.8559 57.8946 75.3209 73.0943 67.2854 73.0943C76.3375 73.0943 83.4049 59.0079 83.4049 39.1611C83.3565 38.2898 83.3081 37.4669 83.3081 36.644Z" fill="url(#paint11_linear)"/>
<defs>
<linearGradient id="paint0_linear" x1="67.2271" y1="69.1651" x2="67.2271" y2="25.2839" gradientUnits="userSpaceOnUse">
<stop stop-color="#DADADA"/>
<stop offset="0.1575" stop-color="#F6F6F6"/>
<stop offset="0.2485" stop-color="#EFEFEF"/>
<stop offset="0.44" stop-color="#EDEDED"/>
<stop offset="0.5548" stop-color="#D6D6D6"/>
<stop offset="0.7944" stop-color="#9B9B9B"/>
<stop offset="1" stop-color="#646363"/>
</linearGradient>
<linearGradient id="paint1_linear" x1="75.1432" y1="31.3638" x2="60.2514" y2="18.8681" gradientUnits="userSpaceOnUse">
<stop stop-color="#EDEDED"/>
<stop offset="0.44" stop-color="#EDEDED"/>
<stop offset="0.5548" stop-color="#D6D6D6"/>
<stop offset="0.7944" stop-color="#9B9B9B"/>
<stop offset="1" stop-color="#646363"/>
</linearGradient>
<linearGradient id="paint2_linear" x1="76.5782" y1="51.8913" x2="55.0405" y2="39.4565" gradientUnits="userSpaceOnUse">
<stop stop-color="#EDEDED"/>
<stop offset="0.44" stop-color="#EDEDED"/>
<stop offset="0.5548" stop-color="#D6D6D6"/>
<stop offset="0.7944" stop-color="#9B9B9B"/>
<stop offset="1" stop-color="#646363"/>
</linearGradient>
<linearGradient id="paint3_linear" x1="67.2261" y1="35.7271" x2="67.2261" y2="11.9494" gradientUnits="userSpaceOnUse">
<stop stop-color="#EDEDED"/>
<stop offset="0.44" stop-color="#EDEDED"/>
<stop offset="0.5548" stop-color="#D6D6D6"/>
<stop offset="0.7944" stop-color="#9B9B9B"/>
<stop offset="1" stop-color="#646363"/>
</linearGradient>
<linearGradient id="paint4_linear" x1="67.226" y1="0.303646" x2="67.226" y2="77.327" gradientUnits="userSpaceOnUse">
<stop stop-color="#D0D0D0"/>
<stop offset="0.0390481" stop-color="#DBDBDB"/>
<stop offset="0.12" stop-color="#EDEDED"/>
<stop offset="0.1207" stop-color="#EDEDED"/>
<stop offset="0.1443" stop-color="#F4F4F4"/>
<stop offset="0.21" stop-color="#F6F6F6"/>
<stop offset="0.545" stop-color="#F6F6F6"/>
<stop offset="0.6171" stop-color="#CDCDCD"/>
<stop offset="0.6964" stop-color="#A8A7A7"/>
<stop offset="0.7755" stop-color="#8A8989"/>
<stop offset="0.8532" stop-color="#757474"/>
<stop offset="0.9288" stop-color="#686767"/>
<stop offset="1" stop-color="#646363"/>
</linearGradient>
<linearGradient id="paint5_linear" x1="67.2272" y1="0.300303" x2="67.2272" y2="77.3223" gradientUnits="userSpaceOnUse">
<stop stop-color="#D0D0D0"/>
<stop offset="0.0390481" stop-color="#DBDBDB"/>
<stop offset="0.12" stop-color="#EDEDED"/>
<stop offset="0.1207" stop-color="#EDEDED"/>
<stop offset="0.1443" stop-color="#F4F4F4"/>
<stop offset="0.21" stop-color="#F6F6F6"/>
<stop offset="0.545" stop-color="#F6F6F6"/>
<stop offset="0.6171" stop-color="#CDCDCD"/>
<stop offset="0.6964" stop-color="#A8A7A7"/>
<stop offset="0.7755" stop-color="#8A8989"/>
<stop offset="0.8532" stop-color="#757474"/>
<stop offset="0.9288" stop-color="#686767"/>
<stop offset="1" stop-color="#646363"/>
</linearGradient>
<linearGradient id="paint6_linear" x1="67.226" y1="0.305747" x2="67.226" y2="77.33" gradientUnits="userSpaceOnUse">
<stop stop-color="#D0D0D0"/>
<stop offset="0.0390481" stop-color="#DBDBDB"/>
<stop offset="0.12" stop-color="#EDEDED"/>
<stop offset="0.1207" stop-color="#EDEDED"/>
<stop offset="0.1443" stop-color="#F4F4F4"/>
<stop offset="0.21" stop-color="#F6F6F6"/>
<stop offset="0.545" stop-color="#F6F6F6"/>
<stop offset="0.6171" stop-color="#CDCDCD"/>
<stop offset="0.6964" stop-color="#A8A7A7"/>
<stop offset="0.7755" stop-color="#8A8989"/>
<stop offset="0.8532" stop-color="#757474"/>
<stop offset="0.9288" stop-color="#686767"/>
<stop offset="1" stop-color="#646363"/>
</linearGradient>
<linearGradient id="paint7_linear" x1="67.227" y1="16.2742" x2="67.227" y2="38.2272" gradientUnits="userSpaceOnUse">
<stop offset="0.005618" stop-color="#EDEDED"/>
<stop offset="1" stop-color="#706F6F"/>
</linearGradient>
<linearGradient id="paint8_linear" x1="74.8302" y1="0.302531" x2="74.8302" y2="38.0107" gradientUnits="userSpaceOnUse">
<stop stop-color="#EDEDED"/>
<stop offset="0.44" stop-color="#EDEDED"/>
<stop offset="0.5548" stop-color="#D6D6D6"/>
<stop offset="0.7944" stop-color="#9B9B9B"/>
<stop offset="1" stop-color="#646363"/>
</linearGradient>
<linearGradient id="paint9_linear" x1="59.6228" y1="0.302531" x2="59.6228" y2="38.0107" gradientUnits="userSpaceOnUse">
<stop stop-color="#EDEDED"/>
<stop offset="0.44" stop-color="#EDEDED"/>
<stop offset="0.5548" stop-color="#D6D6D6"/>
<stop offset="0.7944" stop-color="#9B9B9B"/>
<stop offset="1" stop-color="#646363"/>
</linearGradient>
<linearGradient id="paint10_linear" x1="59.1709" y1="0.302474" x2="59.1709" y2="62.6633" gradientUnits="userSpaceOnUse">
<stop stop-color="#EDEDED"/>
<stop offset="0.44" stop-color="#EDEDED"/>
<stop offset="0.5548" stop-color="#D6D6D6"/>
<stop offset="0.7944" stop-color="#9B9B9B"/>
<stop offset="1" stop-color="#646363"/>
</linearGradient>
<linearGradient id="paint11_linear" x1="75.283" y1="0.302474" x2="75.283" y2="62.6633" gradientUnits="userSpaceOnUse">
<stop stop-color="#EDEDED"/>
<stop offset="0.44" stop-color="#EDEDED"/>
<stop offset="0.5548" stop-color="#D6D6D6"/>
<stop offset="0.7944" stop-color="#9B9B9B"/>
<stop offset="1" stop-color="#646363"/>
</linearGradient>
</defs>
</svg>
